<?xml version="1.0" standalone="no"?>
<!DOCTYPE svg PUBLIC "-//W3C//DTD SVG 20010904//EN"
 "http://www.w3.org/TR/2001/REC-SVG-20010904/DTD/svg10.dtd">
<svg version="1.0" xmlns="http://www.w3.org/2000/svg"
 width="200.000000pt" height="200.000000pt" viewBox="0 0 200.000000 200.000000"
 preserveAspectRatio="xMidYMid meet">
<metadata>
Created by potrace 1.12, written by Peter Selinger 2001-2015
</metadata>
<g transform="translate(0.000000,200.000000) scale(0.100000,-0.100000)"
fill="#000000" stroke="none">
<path d="M891 1989 c-216 -25 -415 -117 -568 -263 -182 -172 -287 -386 -313
-636 -15 -155 11 -235 106 -319 87 -76 203 -106 388 -98 144 6 250 30 386 87
94 40 101 46 64 60 -31 12 -64 38 -64 51 0 4 13 17 28 28 27 19 32 19 97 6
l67 -14 99 87 99 87 -22 17 c-40 30 -158 92 -256 134 -110 47 -127 64 -96 95
21 21 22 21 103 4 89 -18 80 -20 147 30 10 7 19 4 31 -8 14 -14 15 -21 6 -36
-11 -17 -8 -20 28 -29 36 -9 43 -8 69 15 39 33 65 27 64 -13 -2 -30 0 -31 53
-41 l55 -10 51 41 c124 99 154 115 196 101 15 -5 21 -15 21 -38 0 -26 -15 -45
-95 -122 l-95 -91 0 -51 c0 -48 1 -50 24 -46 17 4 27 -1 35 -14 8 -17 4 -26
-24 -53 -28 -27 -35 -42 -35 -72 0 -36 1 -38 21 -28 15 9 24 8 35 -1 22 -18
17 -43 -16 -67 -29 -22 -30 -25 -30 -105 0 -93 -15 -127 -55 -127 -17 0 -26 7
-29 23 -3 12 -13 60 -22 107 -16 83 -66 253 -82 277 -6 9 -39 -10 -115 -64
l-107 -78 0 -66 c0 -57 -3 -69 -24 -89 -33 -30 -50 -21 -72 37 -10 26 -19 50
-20 52 -2 2 -38 -29 -80 -68 -140 -131 -332 -241 -490 -281 -84 -22 -177 -26
-219 -10 l-26 10 20 -28 c28 -39 149 -153 202 -189 331 -228 776 -234 1111
-17 248 160 413 433 447 738 18 159 -14 353 -84 512 -61 138 -208 313 -338
403 -130 89 -302 152 -470 170 -106 12 -100 12 -206 0z"/>
</g>
</svg>
